<?xml version="1.0" standalone="no"?>
<!DOCTYPE svg PUBLIC "-//W3C//DTD SVG 20010904//EN"
 "http://www.w3.org/TR/2001/REC-SVG-20010904/DTD/svg10.dtd">
<svg version="1.0" xmlns="http://www.w3.org/2000/svg"
 width="624.000000pt" height="624.000000pt" viewBox="0 0 624.000000 624.000000"
 preserveAspectRatio="xMidYMid meet">
<metadata>
Created by potrace 1.14, written by Peter Selinger 2001-2017
</metadata>
<g transform="translate(0.000000,624.000000) scale(0.100000,-0.100000)"
fill="#000000" stroke="none">
<path d="M4938 6075 c-1 -2 -23 -6 -48 -10 -25 -3 -53 -8 -63 -11 -11 -4 -29
-7 -40 -9 -45 -7 -83 -17 -127 -32 -25 -8 -52 -16 -60 -18 -8 -2 -16 -4 -17
-5 -2 -2 -6 -3 -10 -4 -5 -2 -21 -8 -38 -15 -16 -8 -39 -17 -50 -21 -68 -27
-85 -36 -85 -42 0 -5 -7 -8 -15 -8 -9 0 -33 -11 -55 -25 -22 -14 -42 -25 -45
-25 -2 0 -28 -16 -57 -35 -80 -53 -100 -67 -139 -97 l-36 -27 -49 23 c-130 63
-270 118 -429 169 -62 20 -213 59 -242 62 -11 2 -30 6 -41 9 -11 4 -31 9 -44
11 -13 3 -34 7 -48 10 -14 2 -45 7 -70 10 -25 3 -52 8 -60 10 -8 2 -40 7 -70
10 -30 4 -66 8 -80 10 -14 2 -56 6 -95 10 -38 3 -97 8 -130 11 -33 3 -466 7
-962 8 l-902 3 0 -196 c0 -108 0 -229 0 -270 l-1 -73 -225 225 c-124 124 -231
224 -238 221 -7 -3 -32 -30 -57 -61 -25 -30 -51 -61 -57 -69 -7 -7 -13 -17
-13 -22 0 -6 -4 -12 -9 -14 -16 -6 -110 -180 -141 -262 -31 -80 -57 -167 -65
-216 -2 -14 -8 -50 -14 -80 -8 -50 -7 -317 2 -365 2 -11 7 -38 12 -60 36 -189
137 -401 268 -559 23 -28 143 -153 267 -278 124 -124 235 -237 248 -251 l24
-25 0 -1223 0 -1222 -263 -263 -262 -262 227 -227 228 -228 28 32 c30 32 53
41 44 17 -4 -11 128 -13 843 -11 466 2 868 6 893 9 25 2 74 7 110 10 36 3 76
8 90 10 14 3 45 7 70 10 90 11 189 31 350 71 340 85 607 203 944 418 27 17 38
25 157 120 l105 84 384 -384 384 -384 223 223 c123 123 223 226 223 229 0 4
-178 185 -395 402 -217 217 -395 400 -395 405 0 6 22 46 49 90 56 90 211 406
217 442 0 3 3 12 7 20 10 24 68 204 72 220 2 8 11 44 20 80 9 36 19 76 22 90
8 40 11 55 13 55 1 0 3 12 5 26 3 27 11 75 19 119 6 32 24 170 24 190 1 8 4
56 8 105 8 97 10 501 3 576 l-4 46 110 86 c138 108 275 247 375 382 25 33 48
62 53 63 4 2 7 8 7 12 0 5 13 28 29 52 121 179 227 459 257 678 10 67 11 310
2 365 -54 336 -236 598 -513 737 -99 50 -181 79 -255 92 -19 3 -46 9 -60 12
-27 7 -336 15 -342 9z m-2273 -498 c17 -2 62 -7 100 -11 39 -4 81 -9 95 -11
14 -3 39 -7 55 -9 70 -11 152 -26 175 -31 14 -3 38 -8 54 -11 16 -2 32 -7 36
-9 3 -2 17 -6 31 -9 37 -7 142 -36 159 -43 8 -3 20 -7 25 -8 24 -6 185 -69
233 -92 55 -27 60 -33 39 -55 -38 -39 -140 -216 -201 -348 -26 -58 -87 -230
-81 -230 2 0 -2 -18 -10 -40 -8 -22 -12 -40 -10 -40 2 0 0 -14 -5 -31 -24 -83
-34 -352 -17 -444 5 -22 8 -47 9 -55 1 -33 51 -199 68 -225 3 -5 6 -16 6 -23
-1 -14 -2088 -2104 -2094 -2097 -7 6 -8 1435 -2 1435 4 0 89 -83 190 -185 102
-102 188 -185 193 -185 4 0 209 202 457 450 l449 449 -646 646 -646 646 1 284
c0 157 1 288 1 291 1 7 1291 -2 1336 -9z m1249 -2194 c11 -12 151 -55 216 -68
124 -23 284 -27 407 -9 126 18 163 25 190 35 18 7 25 5 30 -6 6 -16 -4 -423
-11 -434 -2 -3 -7 -40 -10 -81 -7 -80 -10 -99 -21 -170 -4 -25 -9 -54 -11 -65
-1 -11 -5 -31 -9 -45 -3 -14 -7 -34 -10 -45 -11 -51 -14 -63 -25 -105 -39
-154 -140 -418 -185 -486 l-16 -25 -522 522 -522 522 233 234 c129 128 240
233 246 233 7 0 16 -3 20 -7z m-401 -1461 c301 -302 547 -552 547 -556 0 -22
-167 -152 -309 -240 -100 -62 -334 -176 -361 -176 -6 0 -24 -7 -39 -15 -16 -8
-39 -16 -52 -19 -13 -3 -69 -19 -124 -36 -88 -26 -238 -60 -330 -74 -97 -15
-123 -19 -155 -21 -19 -1 -62 -5 -95 -9 -118 -13 -674 -25 -730 -15 -5 1 -14
0 -20 -1 -12 -2 -298 -2 -305 1 -3 1 -9 0 -15 -1 -18 -4 -185 -3 -189 1 -2 2
-6 19 -8 38 -3 33 21 58 812 851 448 450 817 818 820 819 3 0 251 -246 553
-547z"/>
</g>
</svg>
