<?xml version="1.0" encoding="UTF-8" standalone="no"?><!DOCTYPE svg PUBLIC "-//W3C//DTD SVG 1.1//EN" "http://www.w3.org/Graphics/SVG/1.1/DTD/svg11.dtd"><svg width="100%" height="100%" viewBox="0 0 152 48" version="1.1" xmlns="http://www.w3.org/2000/svg" xmlns:xlink="http://www.w3.org/1999/xlink" xml:space="preserve" xmlns:serif="http://www.serif.com/" style="fill-rule:evenodd;clip-rule:evenodd;stroke-linejoin:round;stroke-miterlimit:2;"><g transform="matrix(1,0,0,1,-2.30347,27.7523)"><g transform="matrix(50,0,0,50,38.8693,14.5646)"><path d="M0.093,-0l-0,-0.718l0.187,-0c0.122,-0 0.214,0.029 0.276,0.088c0.063,0.059 0.094,0.146 0.094,0.261c0,0.074 -0.015,0.138 -0.046,0.194c-0.032,0.057 -0.076,0.1 -0.134,0.13c-0.057,0.03 -0.124,0.045 -0.2,0.045l-0.177,-0Zm0.062,-0.661l0,0.604l0.111,0c0.102,0 0.181,-0.026 0.236,-0.08c0.055,-0.054 0.082,-0.13 0.082,-0.23c0,-0.196 -0.103,-0.294 -0.31,-0.294l-0.119,-0Z" style="fill-rule:nonzero;"/></g><g transform="matrix(35.724,0,0,35.724,69.171,14.5646)"><rect x="0.092" y="-0.718" width="0.063" height="0.718" style="fill-rule:nonzero;"/></g><g transform="matrix(35.724,0,0,35.724,74.5813,14.5646)"><path d="M0.589,-0l-0.406,-0.578c-0.014,-0.02 -0.023,-0.035 -0.028,-0.045l-0.002,0c0.002,0.012 0.002,0.03 0.002,0.057l0,0.566l-0.062,-0l-0,-0.718l0.065,-0l0.4,0.571c0.009,0.013 0.019,0.029 0.029,0.047l0.003,-0c-0.002,-0.03 -0.004,-0.056 -0.004,-0.077l0,-0.541l0.063,-0l0,0.718l-0.06,-0Z" style="fill-rule:nonzero;"/></g><g transform="matrix(35.724,0,0,35.724,97.6965,14.5646)"><path d="M0.093,-0l-0,-0.718l0.346,-0l0,0.057l-0.284,-0l0,0.27l0.263,-0l0,0.056l-0.263,0l0,0.278l0.301,0l-0,0.057l-0.363,-0Z" style="fill-rule:nonzero;"/></g><g transform="matrix(35.724,0,0,35.724,112.683,14.5646)"><path d="M0.479,-0l-0.106,-0.207c-0.02,-0.04 -0.041,-0.068 -0.06,-0.084c-0.02,-0.015 -0.045,-0.023 -0.076,-0.023l-0.082,-0l0,0.314l-0.062,0l-0,-0.718l0.205,-0c0.04,-0 0.075,0.007 0.107,0.023c0.032,0.015 0.057,0.037 0.075,0.066c0.018,0.029 0.027,0.062 0.027,0.1c-0,0.05 -0.015,0.092 -0.044,0.126c-0.029,0.035 -0.069,0.058 -0.121,0.069l-0,0.002c0.018,0.007 0.034,0.02 0.048,0.037c0.014,0.017 0.028,0.041 0.044,0.071l0.117,0.224l-0.072,0Zm-0.324,-0.661l0,0.29l0.12,-0c0.05,-0 0.09,-0.014 0.121,-0.041c0.031,-0.028 0.046,-0.065 0.046,-0.112c-0,-0.043 -0.014,-0.077 -0.041,-0.101c-0.027,-0.024 -0.067,-0.036 -0.118,-0.036l-0.128,-0Z" style="fill-rule:nonzero;"/></g><g transform="matrix(35.724,0,0,35.724,130.199,14.5646)"><path d="M0.093,-0l-0,-0.718l0.187,-0c0.122,-0 0.214,0.029 0.276,0.088c0.063,0.059 0.094,0.146 0.094,0.261c0,0.074 -0.015,0.138 -0.046,0.194c-0.032,0.057 -0.076,0.1 -0.134,0.13c-0.057,0.03 -0.124,0.045 -0.2,0.045l-0.177,-0Zm0.062,-0.661l0,0.604l0.111,0c0.102,0 0.181,-0.026 0.236,-0.08c0.055,-0.054 0.082,-0.13 0.082,-0.23c0,-0.196 -0.103,-0.294 -0.31,-0.294l-0.119,-0Z" style="fill-rule:nonzero;"/></g></g><rect x="0" y="0" width="48" height="48" style="fill:none;fill-rule:nonzero;"/><path d="M41.15,6.967l0,12c3.275,-4.046 3.516,-8.965 0.263,-11.783c-0.086,-0.074 -0.174,-0.147 -0.263,-0.217Z" style="fill:#fff;fill-rule:nonzero;"/><path d="M15.71,26.417l5.66,-5.66l-14.03,-14.03c-3.12,3.12 -3.12,8.19 -0,11.31l8.37,8.38Zm13.57,-3.63c3.05,1.43 7.36,0.42 10.54,-2.76c3.83,-3.83 4.56,-9.3 1.63,-12.23c-2.94,-2.93 -8.42,-2.2 -12.24,1.63c-3.18,3.18 -4.18,7.49 -2.76,10.54c-4.45,4.44 -19.53,19.52 -19.53,19.52l2.83,2.83l13.76,-13.76l13.76,13.76l2.83,-2.83l-13.76,-13.76l2.94,-2.94Z" style="fill-rule:nonzero;"/></svg>